# xmcd CD database file
#
# Track frame offsets:
#	150
#	13234
#	25742
#	40619
#	52001
#	78674
#	95925
#	112984
#	126907
#	144380
#	157094
#	175621
#
# Disc length: 2590 seconds
#
# Revision: 0
# Processed by: cddbd v1.5.1PL2 Copyright (c) Steve Scherf et al.
# Submitted via: CDex 1.51
#
DISCID=9e0a1c0c
DTITLE=Keith Urban - The Ranch
DYEAR=1997
DGENRE=Country
TTITLE0=Walkin' The Country
TTITLE1=Homespun Love
TTITLE2=Just Some Love
TTITLE3=Some Days You Gotta Dance
TTITLE4=Desiree
TTITLE5=My Last Name
TTITLE6=Freedom's Finally Mine
TTITLE7=Hank Don't Fail Me Now
TTITLE8=Tangled Up In Love
TTITLE9=Clutterbilly 
TTITLE10=Man Of The House 
TTITLE11=Ghost In This Guitar
EXTD=YEAR: 1997
EXTT0=
EXTT1=
EXTT2=
EXTT3=
EXTT4=
EXTT5=
EXTT6=
EXTT7=
EXTT8=
EXTT9=
EXTT10=
EXTT11=
PLAYORDER=
